HIERARCHY
ROOT Hips
{
  OFFSET 279.157 85.6768 304.565
  CHANNELS 6 Xposition Yposition Zposition Zrotation Xrotation Yrotation
  JOINT LeftUpLeg
  {
    OFFSET 8.64259 1.95398 -2.38835
    CHANNELS 3 Zrotation Xrotation Yrotation
    JOINT LeftLeg
    {
      OFFSET 43.7702 0 0
      CHANNELS 3 Zrotation Xrotation Yrotation
      JOINT LeftFoot
      {
        OFFSET 40.6238 0 0
        CHANNELS 3 Zrotation Xrotation Yrotation
        JOINT LeftToeBase
        {
          OFFSET 12.7242 0 0
          CHANNELS 3 Zrotation Xrotation Yrotation
          End Site
          {
            OFFSET 0 0 0
          }
        }
      }
    }
  }
  JOINT RightUpLeg
  {
    OFFSET -8.2249 1.95398 -2.59336
    CHANNELS 3 Zrotation Xrotation Yrotation
    JOINT RightLeg
    {
      OFFSET 43.5653 0 0
      CHANNELS 3 Zrotation Xrotation Yrotation
      JOINT RightFoot
      {
        OFFSET 40.6238 0 0
        CHANNELS 3 Zrotation Xrotation Yrotation
        JOINT RightToeBase
        {
          OFFSET 12.7242 0 0
          CHANNELS 3 Zrotation Xrotation Yrotation
          End Site
          {
            OFFSET 0 0 0
          }
        }
      }
    }
  }
  JOINT Spine
  {
    OFFSET 0.165834 0.87714 6.61349
    CHANNELS 3 Zrotation Xrotation Yrotation
    JOINT Spine1
    {
      OFFSET 7.38963 1.71661e-005 0
      CHANNELS 3 Zrotation Xrotation Yrotation
      JOINT Spine2
      {
        OFFSET 11.9445 1.14441e-005 0
        CHANNELS 3 Zrotation Xrotation Yrotation
        JOINT Spine3
        {
          OFFSET 14.7254 4.19617e-005 0
          CHANNELS 3 Zrotation Xrotation Yrotation
          JOINT Spine4
          {
            OFFSET 10.9679 0 0
            CHANNELS 3 Zrotation Xrotation Yrotation
            JOINT RightShoulder
            {
              OFFSET 2.46616 -1.6653 3.69651
              CHANNELS 3 Zrotation Xrotation Yrotation
              JOINT RightArm
              {
                OFFSET 13.0012 0 0
                CHANNELS 3 Zrotation Xrotation Yrotation
                JOINT RightForeArm
                {
                  OFFSET 28.7848 1.52588e-005 0
                  CHANNELS 3 Zrotation Xrotation Yrotation
                  JOINT RightHand
                  {
                    OFFSET 26.5688 1.52588e-005 0
                    CHANNELS 3 Zrotation Xrotation Yrotation
                    End Site
                    {
                      OFFSET 0 0 0
                    }
                  }
                }
              }
            }
            JOINT LeftShoulder
            {
              OFFSET 2.38034 -1.29275 -3.7523
              CHANNELS 3 Zrotation Xrotation Yrotation
              JOINT LeftArm
              {
                OFFSET 16.3182 6.10351e-005 0
                CHANNELS 3 Zrotation Xrotation Yrotation
                JOINT LeftForeArm
                {
                  OFFSET 27.0901 0 0
                  CHANNELS 3 Zrotation Xrotation Yrotation
                  JOINT LeftHand
                  {
                    OFFSET 24.5451 1.52588e-005 0
                    CHANNELS 3 Zrotation Xrotation Yrotation
                    End Site
                    {
                      OFFSET 0 0 0
                    }
                  }
                }
              }
            }
            JOINT Neck
            {
              OFFSET 5.0226 -0.0266342 0
              CHANNELS 3 Zrotation Xrotation Yrotation
              JOINT Head
              {
                OFFSET 6.69364 2.86102e-005 0
                CHANNELS 3 Zrotation Xrotation Yrotation
                End Site
                {
                  OFFSET 0 0 0
                }
              }
            }
          }
        }
      }
    }
  }
}
MOTION
Frames:	13
Frame Time:	0.0416667
-5.86689 99.7881 345.409 -144.791 -82.0223 -145.156 -173.844 -5.34859 90.5811 -9.7344 4.73997 0.371854 66.4129 4.46163 0.240872 22.0417 -5.16772 4.9078 174.584 -3.1403 88.978 -10.9215 -10.5759 -1.66065 64.2747 -2.32044 0.219259 26.2333 0.273982 3.9347 0.465015 7.541 -90.3333 11.7941 0.768172 -0.746022 0.12317 0.734586 -0.779121 -22.413 0.956854 -0.480676 -2.40032 0.956857 -0.480671 90.3743 -29.0006 -106.394 42.959 -13.4582 -6.71232 7.1913 -24.5494 -10.553 -30.4755 -0.719518 -7.4007 -91.1298 -55.363 78.2307 -22.827 14.3317 -12.867 -1.10387 5.71969 -7.91797 -5.02316 -0.0227662 -7.29814 5.13309 -2.77544 -0.385286 -9.72713 -2.74973 1.22468 
-5.87343 99.8065 345.413 -144.59 -82.0295 -144.793 -173.594 -5.03893 90.8997 -10.3337 4.44506 0.23357 68.2343 5.25691 -1.05279 17.7109 -8.70381 7.24206 174.565 -3.30475 89.1035 -10.5801 -10.9569 -1.55795 64.1499 -2.40127 -0.0244019 26.1235 0.3876 3.41044 0.430604 7.52376 -90.3192 11.8291 0.706248 -0.711674 0.158133 0.674247 -0.742071 -22.3778 0.887487 -0.466511 -2.36516 0.887477 -0.466521 89.4359 -29.8082 -107.941 42.3034 -12.9345 -6.26872 4.48079 -24.8318 -12.8268 -31.278 -1.16669 -5.59273 -90.9387 -53.9957 78.2148 -23.0586 14.9224 -12.1055 -1.44224 5.54478 -8.62627 -4.13727 -0.000524304 -10.2154 4.56702 -2.59217 -1.76995 -9.33672 -2.41513 2.683 
-5.96524 99.8153 345.454 -145.078 -82.3114 -145.309 -173.67 -4.85479 90.9272 -10.3166 4.47557 0.339072 67.9969 4.99716 -1.28161 18.2892 -8.15677 6.76696 174.549 -3.23405 89.1355 -10.3738 -10.7912 -1.46533 64.0242 -2.36367 -0.134877 26.1333 0.344933 3.66795 0.301128 7.53588 -90.1303 11.8025 0.537645 -0.316803 0.131662 0.52318 -0.340166 -22.4043 0.607995 -0.140577 -2.39163 0.607997 -0.140573 87.2365 -32.345 -111.152 40.3409 -12.6393 -6.43152 4.86525 -23.7928 -12.5345 -31.1122 -1.0417 -5.88073 -89.3379 -50.9389 79.9072 -25.0285 12.3506 -11.9787 0.494643 10.8116 -8.6951 -5.38115 0.0309832 -8.93231 4.45065 -2.41899 -2.99454 -9.06605 -1.93593 1.3477 
-6.27798 99.809 345.472 -149.675 -82.7501 -149.922 -173.199 -4.78307 91.4517 -10.1622 5.73801 -0.0284788 67.9787 5.20983 -1.22233 18.2804 -8.18706 6.83252 174.733 -3.08583 89.4301 -10.74 -10.3323 -1.45337 63.932 -2.22891 -0.39627 26.1786 0.386494 3.30697 0.273314 7.53328 -90.1916 11.8081 0.453449 -0.430291 0.13719 0.434079 -0.449832 -22.3983 0.561802 -0.274118 -2.38567 0.561812 -0.274108 87.6895 -31.6433 -110.589 40.8516 -12.4137 -6.25003 4.34555 -23.8369 -12.5186 -27.8582 -0.834482 -6.78175 -89.8452 -52.1877 79.4135 -23.7063 13.0028 -12.0269 0.0260398 10.2974 -8.98619 -6.38222 0.0791384 -9.52382 4.20025 -2.34731 -1.722 -8.73844 -2.03695 0.419963 
-6.75642 99.7774 345.321 -152.702 -82.4198 -153.05 -172.776 -4.91159 91.913 -10.5367 5.72914 -0.243379 68.1321 5.41161 -1.72841 18.3789 -8.03087 6.58395 174.847 -3.11751 89.6638 -11.5894 -10.0091 -1.47056 64.2474 -2.28462 -0.57136 26.0633 0.424893 3.29154 0.285161 7.60444 -90.1816 11.6658 0.482134 -0.412169 -0.00510185 0.463527 -0.433007 -22.5407 0.583713 -0.248216 -2.52809 0.583715 -0.248222 87.558 -32.0486 -110.667 40.2278 -12.6451 -5.89908 3.87897 -22.9936 -13.1016 -23.6872 -0.573493 -8.14312 -89.5935 -52.9145 79.9251 -22.9846 12.783 -12.5908 -0.0445202 9.66788 -8.49508 0.396061 -0.148587 -6.77214 3.01858 -2.85795 -1.49362 -7.5632 -2.55267 -0.468944 
-7.42264 99.7262 344.966 -152.406 -82.3196 -153.241 -172.486 -4.47999 92.0498 -11.0427 5.9846 -0.6013 67.8362 5.56415 -1.8176 18.5482 -8.15868 7.21795 174.808 -2.33812 89.609 -12.9065 -10.098 -1.45609 64.8258 -2.44252 -0.758838 25.9816 0.495655 2.99957 0.381971 7.6395 -90.0838 11.5958 0.720611 -0.241478 -0.074958 0.709289 -0.272954 -22.6117 0.759864 -0.0137181 -2.59907 0.759867 -0.0137203 87.1149 -32.2471 -111.42 40.1477 -12.0399 -5.8722 4.79579 -23.4767 -12.3372 -26.5423 -0.745834 -7.15943 -89.4102 -53.1058 80.2278 -22.1742 12.928 -11.9633 -0.229148 6.15763 -9.43319 0.981045 -0.240995 -9.51048 3.5107 -2.2326 -1.89636 -8.5996 -1.92609 0.807659 
-8.42058 99.5696 344.216 -163.123 -82.6553 -164.493 -172.363 -3.12157 92.0843 -12.7102 7.74485 -0.651937 67.5934 5.88859 -1.70935 19.4078 -7.66374 7.38204 175.165 -1.46791 90.0653 -14.5504 -8.44512 -1.54994 65.6701 -2.51717 -1.17595 24.9193 0.772889 3.35424 0.401509 7.73728 -90.0468 11.4 0.777108 -0.171908 -0.270766 0.768792 -0.205958 -22.8078 0.792845 0.0696095 -2.79512 0.792844 0.0695986 87.1678 -31.6994 -111.561 40.0882 -12.1913 -5.86425 4.15471 -23.3265 -12.854 -25.2409 -0.68568 -7.51312 -89.515 -54.2865 80.3032 -21.6025 11.2618 -11.6414 0.482889 1.62929 -9.64984 -1.01831 -0.162043 -10.3858 2.79892 -2.94745 -0.544194 -7.32802 -2.77319 -1.22152 
-9.65675 99.2483 342.971 175.461 -83.4032 173.318 -173.092 0.822824 92.1219 -16.4603 10.0908 -0.158953 67.0728 6.09331 -1.13709 19.9929 -7.94135 9.20993 174.879 1.05694 89.9689 -17.396 -6.42198 -0.867507 67.0809 -2.72106 -1.84757 23.6246 1.14739 3.53988 0.455089 7.82772 -89.9541 11.219 0.92714 0.000354035 -0.451555 0.926255 -0.040463 -22.9892 0.88417 0.279005 -2.97655 0.884157 0.278991 87.5473 -31.115 -111.089 40.2827 -12.3891 -6.1692 4.26162 -24.3077 -12.9008 -24.3632 -0.586439 -8.41514 -89.9128 -54.7095 79.818 -18.6273 11.9387 -9.66226 0.390219 -0.318071 -14.164 2.59095 -0.189842 -7.48192 3.76782 -4.09409 1.09913 -6.85149 -4.03872 -4.42271 
-10.9304 98.872 341.372 139.726 -82.7919 136.76 -173.493 6.99676 91.9179 -22.7233 14.1199 -0.181339 65.5364 4.82586 -1.37632 20.22 -7.77027 9.15521 174.064 4.15435 89.7014 -19.599 -3.43537 0.366117 68.0304 -2.56106 -2.01093 22.7489 1.26151 4.39977 0.427276 7.86872 -89.8305 11.1356 0.929235 0.246943 -0.53502 0.939214 0.2058 -23.0721 0.812053 0.514817 -3.05949 0.812071 0.514826 87.6422 -31.0205 -110.948 40.3653 -11.9342 -5.59821 4.19809 -23.6866 -13.4836 -25.0559 -0.550554 -8.34743 -89.2517 -53.8187 80.5919 -18.5463 8.73544 -10.2666 2.4581 3.51249 -14.2059 0.997763 -0.193288 -7.86189 5.70871 -6.05293 -0.359544 -5.72026 -5.76883 -3.54641 
-11.8256 98.7193 340.165 124.57 -79.8286 121.182 -173.182 10.661 91.7021 -30.9683 13.7113 -0.253102 70.7565 7.48879 -3.48883 14.7297 -14.3737 15.554 173.741 4.90053 89.7031 -20.31 0.0884284 0.984539 68.5282 -2.05339 -1.85922 21.4404 1.59152 4.75519 0.388738 7.98966 -89.8402 10.8938 0.84788 0.23803 -0.776876 0.857527 0.200469 -23.3136 0.737139 0.48185 -3.30099 0.737136 0.481858 87.8529 -30.8666 -110.608 39.6434 -11.2706 -4.7985 4.47266 -23.4714 -12.8794 -24.9559 -0.519909 -8.46286 -89.849 -52.8761 79.5478 -19.6398 7.77799 -7.7767 2.44659 0.287203 -14.5596 0.797504 -0.203374 -7.96701 6.78078 -6.87993 -1.71369 -4.84729 -6.33627 -3.24243 
-12.2872 98.792 339.281 123.28 -77.6901 119.739 -172.887 12.2833 91.8727 -42.2714 13.3633 0.48926 67.3828 5.3915 -1.75983 20.1898 -7.6939 8.94956 173.414 4.48383 89.6428 -20.3688 1.30124 1.36129 68.0612 -1.82443 -1.99591 21.4905 1.55389 4.86711 0.336674 8.00018 -89.8582 10.873 0.735882 0.212996 -0.797749 0.744544 0.180392 -23.3341 0.637843 0.424319 -3.32143 0.63785 0.424322 88.3999 -30.9617 -109.509 40.1398 -10.1844 -3.3772 4.55552 -22.5153 -12.3485 -25.1784 -0.498983 -8.27351 -89.1558 -52.6286 80.5051 -19.7996 8.62673 -5.77953 1.52197 1.61988 -11.8655 -5.24821 0.225936 -11.2505 4.95226 -6.93879 -3.24279 -4.50263 -6.1625 -3.17352 
-12.3012 98.7692 338.547 124.958 -76.4068 121.63 -172.405 10.2675 92.9772 -49.4113 15.64 1.40985 65.3035 3.93506 -1.46858 20.2315 -7.59169 8.67897 173.304 3.71215 89.7436 -20.1538 1.7621 1.54269 67.9927 -1.83425 -2.14438 21.125 1.72305 4.5766 0.163913 7.96809 -89.9134 10.9373 0.36645 0.137429 -0.73356 0.372143 0.121159 -23.269 0.308196 0.241206 -3.25632 0.308209 0.241205 88.7005 -31.336 -108.776 40.8264 -9.54024 -1.63028 4.44093 -21.5565 -12.4449 -24.7606 -0.352706 -8.82334 -89.1924 -52.2786 80.3848 -22.0106 6.87028 -2.30251 2.09575 1.31249 -9.54482 -4.17536 0.0560523 -8.56403 3.6482 -6.37163 -3.68446 -5.18107 -5.54848 -3.71331 
-11.8749 98.6743 337.379 126.127 -75.6204 123.316 -172.198 5.82177 94.6001 -49.6228 19.9587 2.40205 63.9244 3.17922 -1.16745 19.1073 -8.26615 8.48902 173.236 3.70672 89.8078 -20.215 2.04128 1.68783 67.6908 -1.53305 -1.8534 19.9172 2.05702 4.74102 -0.0135257 7.88693 -90.0352 11.1 -0.0431569 -0.0658927 -0.570958 -0.0460269 -0.0639309 -23.1061 -0.0213624 -0.0758208 -3.09345 -0.0213692 -0.0758281 88.9879 -31.4584 -108.172 41.8469 -8.8248 0.650336 4.28405 -20.3622 -12.5142 -24.3917 -0.331733 -8.62053 -89.3727 -53.0675 80.2745 -21.5995 8.73004 -2.28335 0.54653 1.75912 -6.07358 -2.23279 -0.0932035 -6.56544 2.26109 -6.05094 -4.20977 -5.08397 -5.24612 -2.20968 
